<?xml version="1.0" encoding="UTF-8"?>
<svg xmlns="http://www.w3.org/2000/svg" xmlns:xlink="http://www.w3.org/1999/xlink" width="80px" height="77px" viewBox="0 0 80 77">
  <!-- Generator: Sketch 52.4 (67378) - http://www.bohemiancoding.com/sketch -->
  <title>knowledge</title>
  <desc>Created with Sketch.</desc>
  <g id="V2019" stroke="none" stroke-width="1" fill="none" fill-rule="evenodd">
    <g id="Advisors" transform="translate(-1063.000000, -2121.000000)" fill="#000000" stroke="#FFFFFF">
      <g id="knowledge" transform="translate(1064.000000, 2122.000000)">
        <path d="M47.5470003,45.7090065 C54.5935036,42.8471613 59.1604455,35.9529677 59.0472197,28.3483871 C59.0472197,17.8965548 50.0173358,9.39354839 38.9181874,9.39354839 C27.8190391,9.39354839 18.7891552,17.8965548 18.7891552,28.3483871 C18.6759294,35.9529677 23.2427036,42.8471613 30.2893745,45.7090065 L30.4453745,45.7935484 L31.5110391,47.5420903 C29.60851,48.6433161 28.9590133,51.0782581 30.0600713,52.9806194 C30.2048326,53.2307226 30.3764326,53.4643871 30.571852,53.6774194 C29.0799552,55.3129032 29.1962003,57.8479871 30.8315165,59.3400516 C31.5744455,60.017729 32.5450003,60.3914581 33.5504455,60.3870968 L44.2859294,60.3870968 C46.4996197,60.3968258 48.3020068,58.6100387 48.3117358,56.3963484 C48.3160971,55.3907355 47.9423681,54.4201806 47.2646907,53.6774194 C48.7507165,52.0575355 48.6420197,49.539729 47.0221358,48.053871 C46.8091036,47.8584516 46.5756068,47.6868516 46.3253358,47.5420903 L47.3910003,45.7935484 L47.5470003,45.7090065 Z M44.2857616,57.7032258 L33.5502778,57.7032258 C32.8091939,57.7032258 32.2083423,57.1023742 32.2083423,56.3612903 C32.2083423,55.6202065 32.8091939,55.0193548 33.5502778,55.0193548 L44.2857616,55.0193548 C45.0268455,55.0193548 45.6276971,55.6202065 45.6276971,56.3612903 C45.6276971,57.1023742 45.0268455,57.7032258 44.2857616,57.7032258 Z M44.2857616,52.3354839 L33.5502778,52.3354839 C32.8091939,52.3354839 32.2083423,51.7346323 32.2083423,50.9935484 C32.2083423,50.2524645 32.8091939,49.6516129 33.5502778,49.6516129 L44.2857616,49.6516129 C45.0268455,49.6516129 45.6276971,50.2524645 45.6276971,50.9935484 C45.6276971,51.7346323 45.0268455,52.3354839 44.2857616,52.3354839 Z M46.3288584,43.3161677 L45.792252,43.6077032 C45.5845874,43.720929 45.4103036,43.8868258 45.2870133,44.0886194 L43.5322649,46.9677419 L42.9438262,46.9677419 L42.9438262,36.7878194 L49.2603165,30.471329 L47.3628197,28.5736645 L40.6531423,35.2833419 C40.4015294,35.5349548 40.2601229,35.8761419 40.2599552,36.2320903 L40.2599552,46.9675742 L37.5760842,46.9675742 L37.5760842,36.2320903 C37.5759165,35.8761419 37.43451,35.5349548 37.1828971,35.2833419 L30.4732197,28.5736645 L28.5757229,30.4711613 L34.8922133,36.7876516 L34.8922133,46.9675742 L34.3037745,46.9675742 L32.5490262,44.0884516 C32.4257358,43.8866581 32.251452,43.7207613 32.0437874,43.6075355 L31.507181,43.316 C31.4640713,43.2930194 31.4199552,43.2722194 31.3748326,43.2537677 C25.3077745,40.8129548 21.3712068,34.8871355 21.4728584,28.3483871 C21.4728584,19.3768774 29.2983552,12.0774194 38.9180197,12.0774194 C48.5376842,12.0774194 56.363181,19.3768774 56.363181,28.3483871 C56.4648326,34.8871355 52.5280971,40.8129548 46.4612068,43.2537677 C46.4160842,43.2723871 46.3718003,43.2931871 46.3288584,43.3161677 Z" id="Shape" fill-rule="nonzero"></path>
        <polygon id="Rectangle" transform="translate(14.857933, 12.774298) rotate(-63.434949) translate(-14.857933, -12.774298) " points="13.5160386 8.27358348 16.199828 8.27358348 16.199828 17.275013 13.5160386 17.275013"></polygon>
        <polygon id="Rectangle" transform="translate(62.900548, 12.761546) rotate(-18.445820) translate(-62.900548, -12.761546) " points="58.3998067 11.419643 67.401289 11.419643 67.401289 14.1034481 58.3998067 14.1034481"></polygon>
        <rect id="Rectangle" x="5.36774194" y="26.8387097" width="8.0516129" height="2.68387097"></rect>
        <rect id="Rectangle" x="64.4129032" y="26.8387097" width="8.0516129" height="2.68387097"></rect>
        <polygon id="Rectangle" transform="translate(14.857933, 46.322685) rotate(-26.565051) translate(-14.857933, -46.322685) " points="10.3572185 44.9807907 19.3586481 44.9807907 19.3586481 47.66458 10.3572185 47.66458"></polygon>
        <polygon id="Rectangle" transform="translate(63.167611, 46.322685) rotate(-63.434949) translate(-63.167611, -46.322685) " points="61.825716 41.8219706 64.5095054 41.8219706 64.5095054 50.8234001 61.825716 50.8234001"></polygon>
        <rect id="Rectangle" x="37.5741935" y="0" width="2.68387097" height="6.70967742"></rect>
        <path d="M77.8322581,63.0709677 L77.8322581,60.3870968 C60.3248645,60.3870968 41.7206065,64.6192258 41.600671,72.4645161 L36.2315871,72.4645161 C36.1116516,64.6192258 17.5073935,60.3870968 0,60.3870968 L0,63.0709677 C19.6591871,63.0709677 33.3868516,68.004929 33.5411742,72.4645161 L3.69668454e-15,72.4645161 L0,75.1483871 L77.8322581,75.1483871 L77.8322581,72.4645161 L44.2910839,72.4645161 C44.4454065,68.004929 58.173071,63.0709677 77.8322581,63.0709677 Z" id="Path"></path>
        <polygon id="Rectangle" transform="translate(12.821226, 69.108455) rotate(-86.984803) translate(-12.821226, -69.108455) " points="11.4793115 56.3401385 14.1631405 56.3401385 14.1631405 81.8767713 11.4793115 81.8767713"></polygon>
        <polygon id="Rectangle" transform="translate(65.156844, 69.109732) rotate(-3.020918) translate(-65.156844, -69.109732) " points="52.3884604 67.7678102 77.9252277 67.7678102 77.9252277 70.4516533 52.3884604 70.4516533"></polygon>
      </g>
    </g>
  </g>
</svg>
