<?xml version="1.0" encoding="UTF-8"?>
<svg xmlns="http://www.w3.org/2000/svg" xmlns:xlink="http://www.w3.org/1999/xlink" width="80px" height="80px" viewBox="0 0 80 80">
  <!-- Generator: Sketch 52.4 (67378) - http://www.bohemiancoding.com/sketch -->
  <title>premium</title>
  <desc>Created with Sketch.</desc>
  <g id="V2019" stroke="none" stroke-width="1" fill="none" fill-rule="evenodd">
    <g id="Advisors" transform="translate(-493.000000, -2119.000000)" fill="#000000" stroke="#FFFFFF">
      <g id="premium" transform="translate(494.000000, 2120.000000)">
        <path d="M72.04275,42.9000807 C72.027475,42.9000807 72.0120375,42.9002432 71.9966,42.9005682 C70.5146,42.8976432 69.0863875,43.4548557 67.9978,44.4605682 L53.9136,57.4605682 C53.1942125,58.1287682 52.248625,58.5002432 51.2668,58.5005682 L31.5159,58.5005682 C30.0798875,58.5005682 28.9159,57.3365807 28.9159,55.9005682 C28.9159,54.4645557 30.0798875,53.3005682 31.5159,53.3005682 L45.1841,53.3005682 C48.0559625,53.3005682 50.3841,50.9724307 50.3841,48.1005682 C50.3841,45.2287057 48.0559625,42.9005682 45.1841,42.9005682 L23.9733,42.9005682 C20.805525,42.8995932 17.7016125,43.7902557 15.0163,45.4706682 L10.4,48.3605682 L10.4,46.8005682 L0,46.8005682 L0,78.0005682 L10.4,78.0005682 L10.4,75.4005682 L37.8079,75.4005682 C38.6683375,75.4005682 39.527475,75.3349182 40.378,75.2042682 L51.051,73.5623682 C54.6056875,73.0230307 57.8933875,71.3570807 60.4305,68.8095682 L76.2723,52.9651682 C77.3820125,51.8621182 78.004225,50.3607807 78,48.7960682 C77.9831,45.5228307 75.315825,42.8831807 72.04275,42.9000807 Z M7.8,75.4005682 L2.6,75.4005682 L2.6,49.4005682 L7.8,49.4005682 L7.8,75.4005682 Z M74.4328,51.1295682 L74.4341,51.1269682 L58.5923,66.9713682 C56.44535,69.1267682 53.6635125,70.5366182 50.6558,70.9935682 L39.9828,72.6354682 C39.2630875,72.7454807 38.5360625,72.8007307 37.8079,72.8005682 L10.4,72.8005686 L10.4,51.4207682 L16.3956,47.6741682 C18.6675125,46.2531057 21.2935125,45.4997557 23.9733,45.5005682 L45.1841,45.5005682 C46.6201125,45.5005682 47.7841,46.6645557 47.7841,48.1005682 C47.7841,49.5365807 46.6201125,50.7005682 45.1841,50.7005682 L31.5159,50.7005682 C28.6440375,50.7005682 26.3159,53.0287057 26.3159,55.9005682 C26.3159,58.7724307 28.6440375,61.1005682 31.5159,61.1005682 L51.2668,61.1005682 C52.9013875,61.1023557 54.4763375,60.4866432 55.6764,59.3767682 L69.7619,46.3767682 C70.4010125,45.7961557 71.2387,45.4835057 72.1019,45.5031682 C73.9219,45.5025182 75.39805,46.9773682 75.3987,48.7973682 C75.399025,49.6721057 75.0514375,50.5110932 74.4328,51.1295682 Z" id="Shape" fill-rule="nonzero"></path>
        <path d="M58.24,13.519882 C57.9944625,13.192607 57.609175,12.999882 57.2,12.999882 L45.0801,12.999882 L40.2077,0.817582014 C39.9410375,0.151007014 39.1846,-0.173342986 38.5178625,0.0933195144 C38.1875,0.225432014 37.9257125,0.487219514 37.7936,0.817582014 L32.9199,12.999882 L20.8,12.999882 C20.082075,12.999882 19.5,13.581957 19.5,14.299882 C19.5,14.709057 19.692725,15.0943445 20.02,15.339882 L29.6491,22.561382 L24.778,35.951382 C24.532625,36.626082 24.8807,37.371957 25.5554,37.617332 C25.9813125,37.7721945 26.4571125,37.694032 26.8112,37.411282 L38.9545,27.695082 L49.8355,37.365782 C50.3724,37.842557 51.194,37.793807 51.670775,37.256907 C51.9621375,36.9288195 52.06825,36.4760945 51.9532,36.052782 L48.2872,22.610782 L57.98,15.339882 C58.5544375,14.9090945 58.6707875,14.094157 58.24,13.519882 Z M46.02,21.059882 C45.5934375,21.379682 45.405425,21.9274695 45.5455,22.441782 L48.295,32.523282 L39.8645,25.028782 C39.3913,24.6077445 38.6836125,24.5892195 38.1888,24.984582 L28.8054,32.490782 L32.4233,22.544482 C32.6187875,22.005957 32.4387375,21.403082 31.98,21.059882 L24.7,15.599882 L33.8,15.599882 C34.332025,15.6000445 34.810425,15.276182 35.0077,14.782182 L39,4.79948201 L42.9923,14.782182 C43.189575,15.276182 43.6681375,15.6000445 44.2,15.599882 L53.3,15.599882 L46.02,21.059882 Z" id="Shape" fill-rule="nonzero"></path>
        <polygon id="Rectangle" transform="translate(27.244272, 6.444272) rotate(-45.000000) translate(-27.244272, -6.444272) " points="25.9442845 2.76725732 28.5442596 2.76725732 28.5442596 10.1212868 25.9442845 10.1212868"></polygon>
        <polygon id="Rectangle" transform="translate(50.644272, 6.444272) rotate(-45.000000) translate(-50.644272, -6.444272) " points="46.9672573 5.14428452 54.3212868 5.14428452 54.3212868 7.74425959 46.9672573 7.74425959"></polygon>
        <rect id="Rectangle" x="16.9" y="23.4" width="7.8" height="2.6"></rect>
        <rect id="Rectangle" x="53.3" y="23.4" width="7.8" height="2.6"></rect>
        <rect id="Rectangle" x="37.7" y="31.2" width="2.6" height="7.8"></rect>
      </g>
    </g>
  </g>
</svg>
