<?xml version="1.0" encoding="UTF-8"?>
<svg xmlns="http://www.w3.org/2000/svg" xmlns:xlink="http://www.w3.org/1999/xlink" width="72px" height="83px" viewBox="0 0 72 83">
  <!-- Generator: Sketch 52.4 (67378) - http://www.bohemiancoding.com/sketch -->
  <title>smiling-girl</title>
  <desc>Created with Sketch.</desc>
  <g id="V2019" stroke="none" stroke-width="1" fill="none" fill-rule="evenodd">
    <g id="Advisors" transform="translate(-212.000000, -2118.000000)" fill="#000000" stroke="#FFFFFF" stroke-width="1.4">
      <g id="smiling-girl" transform="translate(213.000000, 2119.000000)">
        <path d="M40.2489986,60.7193733 C37.337609,63.6307629 32.6004973,63.6307629 29.6892984,60.7193733 C29.0934401,60.123515 28.1273638,60.123515 27.5315054,60.7193733 C26.9354564,61.3152316 26.9354564,62.2813079 27.5315054,62.8771662 C29.5821049,64.9277657 32.2756744,65.95297 34.9692439,65.95297 C37.6628134,65.95297 40.3563828,64.9277657 42.4069823,62.8771662 C43.0030313,62.2813079 43.0030313,61.3152316 42.4069823,60.7193733 C41.811124,60.123515 40.8448569,60.123515 40.2489986,60.7193733 Z" id="Path"></path>
        <path d="M69.4559492,75.8904265 C65.8815623,71.9322794 65.7303089,61.8465573 66.1533606,51.411026 C67.7103361,49.9486554 68.6857585,47.8738325 68.6857585,45.574323 C68.6857585,43.5550042 67.9331154,41.7092549 66.6958129,40.2987644 C67.2157585,29.6549497 67.4915623,22.537075 64.1153497,15.9647044 C61.8120255,11.4801268 58.08505,7.73312406 53.0381835,4.82783796 C47.1560854,1.44189791 40.4463852,-0.220172939 33.6336876,0.0233965433 C27.6495459,0.23663905 22.078347,3.0246227 18.2365486,7.70241562 C13.2758947,7.99748374 8.76327889,10.6971568 6.33540423,14.8696908 C6.12693011,15.2278925 5.92532249,15.5962031 5.73611268,15.9645137 C2.35799279,22.5405083 2.63360586,29.6578107 3.15355137,40.300481 C1.91701186,41.7107807 1.16513175,43.5557671 1.16513175,45.574323 C1.16513175,47.8730696 2.13979115,49.9473202 3.69600368,51.4096908 C4.11905546,61.8459851 3.96780205,71.9324701 0.393415128,75.8906173 C0.0554314772,76.2648407 -0.0757946808,76.7821159 0.0428429213,77.2723066 C0.161480524,77.7624974 0.51472303,78.1624701 0.986412404,78.340808 C5.00960041,79.8609715 8.90594919,80.4045682 12.4225432,80.4045682 C16.075704,80.4045682 19.3189737,79.8174837 21.8651045,79.1289279 C26.2892189,77.9326336 29.4096549,76.2533965 30.4743416,75.6336963 C31.9233606,75.8724974 33.4097639,75.9989551 34.9253497,75.9989551 C36.4405541,75.9989551 37.9265759,75.8726881 39.3752135,75.633887 C40.4400909,76.253778 43.5603361,77.9326336 47.9840691,79.1289279 C51.3804996,80.0473202 54.5291644,80.4064756 57.3776113,80.4064756 C62.1225432,80.4064756 66.0335786,79.4095001 68.8627612,78.3404265 C69.3346413,78.1620886 69.6876931,77.7623066 69.8063307,77.2719252 C69.925159,76.7819252 69.7939328,76.2648407 69.4559492,75.8904265 Z M62.2005541,48.7239415 L62.2005541,41.1488734 C62.2009356,41.1288461 62.2009356,41.1086282 62.2005541,41.0884102 L62.2005541,40.8562848 C64.1904996,41.5015437 65.6337966,43.3720886 65.6337966,45.5741322 C65.6337966,47.7937235 64.1679928,49.6774292 62.1534424,50.3080014 C62.1835786,49.783669 62.2005541,49.2559034 62.2005541,48.7239415 Z M8.45066308,17.3589824 C8.61564946,17.0379742 8.79131704,16.7167753 8.97308815,16.404541 C10.9828702,12.9505083 14.8267666,10.7753584 19.0046413,10.7278652 C19.0094097,10.7278652 19.0208538,10.7276745 19.0258129,10.7274837 C19.4893007,10.7177562 19.9230337,10.4980287 20.2051317,10.1302903 C23.4981835,5.83473169 28.4323252,3.26247011 33.742407,3.07306957 C39.9830882,2.85048101 46.1291644,4.37197965 51.5153497,7.4725791 C56.0443688,10.0797453 59.3702271,13.4059851 61.4004179,17.3589824 C64.1027612,22.6194728 64.1828702,28.3417344 63.7397912,38.1739688 C63.2492189,37.9700723 62.7342326,37.8142412 62.2005541,37.7106717 L62.2005541,36.1590369 C62.2005541,35.3163666 61.5173388,34.6331513 60.6746685,34.6331513 C59.8319982,34.6331513 59.148783,35.3163666 59.148783,36.1590369 L59.148783,39.6245137 C38.1299001,39.8490096 26.7513715,29.7249497 23.7152407,26.557402 C23.3579928,26.1847044 22.8365214,26.0180014 22.3299274,26.1139415 C21.8227612,26.2098816 21.398565,26.5556854 21.202298,27.0330968 C18.9849955,32.4267208 15.1109628,35.2486554 9.01085382,35.91356 C8.23665764,35.9978652 7.65033611,36.6517072 7.65033611,37.430481 L7.65033611,37.710481 C7.11608543,37.8140505 6.60052685,37.9700723 6.10957317,38.1743502 C5.66630341,28.3444047 5.74698461,22.6223339 8.45066308,17.3589824 Z M7.69725709,50.3081922 C5.68270668,49.67762 4.21690287,47.7939143 4.21690287,45.574323 C4.21690287,43.3720886 5.66019987,41.5015437 7.65014537,40.8564756 L7.65014537,48.7239415 C7.65014537,49.2559034 7.66712085,49.783669 7.69725709,50.3081922 Z M3.96970941,76.1307535 C6.69074483,71.4863393 7.16262494,63.7655491 6.81663039,53.2300723 C7.221753,53.3551949 7.64099006,53.447511 8.07052685,53.5070205 C9.80603093,63.277838 16.761971,71.2654674 25.9415078,74.477075 C21.5265486,76.3768025 13.1704179,78.8941322 3.96970941,76.1307535 Z M34.9253497,72.947184 C21.5685105,72.947184 10.7019165,62.08059 10.7019165,48.7237508 L10.7021072,38.7621976 C16.4247503,37.8205355 20.4990555,35.0033693 23.0818075,30.1964483 C25.2802271,32.2020341 28.8347775,34.9526336 33.8442598,37.363342 C41.3764124,40.9880832 49.8826522,42.7758489 59.148783,42.676857 L59.148783,48.7237508 C59.148783,62.0807807 48.282189,72.947184 34.9253497,72.947184 Z M48.8810991,76.2099088 C46.9245323,75.6869115 45.2363307,75.0550042 43.9036604,74.4789824 C53.0860582,71.2689006 60.0444778,63.2799361 61.7803634,53.5070205 C62.2095187,53.447511 62.6281835,53.3553856 63.0329247,53.2304538 C62.6867394,63.7672658 63.1584288,71.4880559 65.8807993,76.1322794 C60.4919437,77.7602085 54.7832244,77.7876745 48.8810991,76.2099088 Z" id="Shape" fill-rule="nonzero"></path>
        <path d="M16.8503065,44.1600579 C16.2542575,44.7559162 16.2542575,45.7219925 16.8503065,46.3178508 C17.4461649,46.9137091 18.4122411,46.9137091 19.0080995,46.3178508 C19.9861921,45.3401396 21.5773093,45.3399489 22.5554019,46.3178508 C22.8533311,46.61578 23.243767,46.7647446 23.6343937,46.7647446 C24.0250204,46.7647446 24.4154564,46.61578 24.7133856,46.3178508 C25.3094346,45.7219925 25.3094346,44.7559162 24.7133856,44.1600579 C22.5456744,41.992156 19.0180177,41.9919653 16.8503065,44.1600579 Z" id="Path"></path>
        <path d="M53.3237398,46.3177793 C53.9197888,45.721921 53.9197888,44.7558447 53.3237398,44.1599864 C51.1558379,41.9920845 47.6283719,41.9920845 45.4606608,44.1599864 C44.8646117,44.7558447 44.8646117,45.721921 45.4606608,46.3177793 C46.0565191,46.9136376 47.0225954,46.9136376 47.6184537,46.3177793 C48.5965463,45.3398774 50.1878542,45.3400681 51.1657561,46.3177793 C51.4636853,46.6157084 51.8541213,46.764673 52.244748,46.764673 C52.6353747,46.764673 53.0258106,46.6157084 53.3237398,46.3177793 Z" id="Path"></path>
      </g>
    </g>
  </g>
</svg>
