<?xml version="1.0" encoding="UTF-8"?>
<svg xmlns="http://www.w3.org/2000/svg" xmlns:xlink="http://www.w3.org/1999/xlink" width="78px" height="78px" viewBox="0 0 78 78">
  <!-- Generator: Sketch 52.4 (67378) - http://www.bohemiancoding.com/sketch -->
  <title>speed</title>
  <desc>Created with Sketch.</desc>
  <g id="V2019" stroke="none" stroke-width="1" fill="none" fill-rule="evenodd">
    <g id="Advisors" transform="translate(-1349.000000, -2121.000000)" fill="#000000" fill-rule="nonzero" stroke="#FFFFFF">
      <g id="speed" transform="translate(1350.000000, 2122.000000)">
        <path d="M24.0995859,29.5493814 C23.8973637,29.1524925 23.50166,28.8920481 23.0579563,28.8630111 L12.4229933,28.1538259 C11.8718822,28.0994555 11.3624007,28.4407888 11.1613637,28.953974 L3.49454887,48.5477518 C3.2884748,49.0736777 3.45662294,49.6716036 3.90669702,50.0141222 C4.13173405,50.185974 4.40225257,50.2720481 4.67143776,50.2720481 C4.93810443,50.2720481 5.20491924,50.1886407 5.42995628,50.0193074 L11.7935118,45.2473074 L15.498697,45.9880481 C16.1029933,46.1081962 16.7071415,45.776937 16.9271415,45.1993074 C18.9169192,39.9873074 21.3123266,35.1407888 24.0440304,30.7960481 C24.2804748,30.4190111 24.3019563,29.944937 24.0995859,29.5493814 Z M14.9524748,43.3003444 L11.7341044,42.656937 C11.382697,42.5874555 11.0160304,42.6708629 10.7278822,42.8856777 L7.46773405,45.3304185 L13.17766,30.7375296 L20.8104007,31.2456777 C18.6108452,34.9686407 16.6464007,39.0111592 14.9524748,43.3003444 Z" id="Shape"></path>
        <path d="M47.6009871,63.3732026 L46.8918019,52.7369063 C46.8614315,52.2918693 46.6009871,51.8963137 46.2040982,51.6939433 C45.8083945,51.4917211 45.3343204,51.5118693 44.9577278,51.7494989 C40.6116537,54.4812026 35.7663204,56.8767582 30.5544685,58.8663878 C29.9780241,59.0850545 29.6442463,59.6893508 29.7657278,60.2948322 L30.5064685,64.0000174 L25.7344685,70.3622396 C25.3956537,70.8148322 25.3969871,71.4367582 25.7395056,71.8868322 C25.9835056,72.2078693 26.358913,72.3860915 26.7457278,72.3860915 C26.89995,72.3860915 27.0555056,72.3570545 27.2070611,72.3013508 L46.8008389,64.6345359 C47.3140241,64.4337952 47.6375797,63.9229804 47.6009871,63.3732026 Z M30.422913,68.3247582 L32.8676537,65.06461 C33.0826167,64.7776471 33.1660241,64.4111285 33.0952093,64.0583878 L32.4518019,60.8412026 C36.7421723,59.1472767 40.7835056,57.1828322 44.5063204,54.9832767 L45.0158019,62.6146841 L30.422913,68.3247582 Z" id="Shape"></path>
        <path d="M36.6203057,37.9259259 L28.1026761,37.9259259 C27.6438612,37.9259259 27.221639,38.174963 26.9977872,38.5757037 L16.3071205,57.7851852 C16.0290464,58.2857778 16.1225279,58.9127407 16.5346761,59.3097778 C16.7761575,59.5423704 17.0933427,59.6637037 17.4120094,59.6637037 C17.6370464,59.6637037 17.8632686,59.6042963 18.0654909,59.4804444 L37.2749724,47.8557037 C37.6528983,47.626963 37.8843057,47.2173333 37.8843057,46.774963 L37.8843057,39.1900741 C37.8844538,38.4922963 37.3180835,37.9259259 36.6203057,37.9259259 Z M35.3563057,46.0631111 L20.8328983,54.8524444 L28.8448983,40.4554074 L28.8448983,40.4540741 L35.3563057,40.4540741 L35.3563057,46.0631111 Z" id="Shape"></path>
        <path d="M75.8242109,1.20019755 C75.7723591,0.584641997 75.2845072,0.0966419966 74.6688035,0.0447901447 C74.2490998,0.0119012559 32.6206554,-2.89432097 14.6019887,44.3001976 C14.4237665,44.7667161 14.5362109,45.2924938 14.8889517,45.6452346 L20.8997665,51.6560494 C21.1816924,51.9379753 21.5760628,52.0668642 21.9717665,52.0138272 C22.3649517,51.9569383 22.7088035,51.7193087 22.9009517,51.371605 L28.9231739,40.4370864 L35.4308776,40.4370864 L35.4308776,46.0610864 L24.4305813,53.0061235 C24.1056924,53.2121976 23.8920628,53.5535309 23.8490998,53.9353087 C23.8061369,54.3170864 23.9400628,54.6975309 24.2119146,54.9693827 L30.2227295,60.9801976 C30.4642109,61.221679 30.7865813,61.3505679 31.1165072,61.3505679 C31.2682109,61.3505679 31.4210998,61.3240494 31.5677665,61.2671605 C78.7645072,43.2471605 75.8596183,1.61871607 75.8242109,1.20019755 Z M69.1926554,23.6281976 C64.7568035,34.6031605 54.6059887,49.523605 31.4285072,58.6113087 L27.1178406,54.300642 L37.3698406,47.8283457 C37.7363591,47.5957531 37.9588776,47.1924938 37.9588776,46.7588642 L37.9588776,39.1741235 C37.9588776,38.4763457 37.3925072,37.9099753 36.6947295,37.9099753 L28.1745813,37.9099753 C27.713248,37.9099753 27.2896924,38.1615309 27.0671739,38.5647901 L21.4962109,48.6801976 L17.2576924,44.4403457 C33.0756183,4.08745681 66.7920628,2.43649385 73.3464332,2.52879014 C73.393248,5.47679014 73.1227295,13.9033087 69.1926554,23.6281976 Z" id="Shape"></path>
        <path d="M21.6542294,55.7998452 C21.379859,55.4358452 20.9425257,55.2588082 20.5139331,55.3042896 C20.5582294,54.8745119 20.3811923,54.4383637 20.0183775,54.1639934 C18.1121553,52.7229563 15.6521553,52.2438452 13.2668219,52.8479934 C10.7348219,53.4914008 8.66415528,55.2182156 7.58711825,57.5884378 L0.113784912,74.0308082 C-0.104881755,74.5111045 -0.00251138462,75.0762896 0.370377504,75.4478452 C0.611858986,75.6905119 0.935414541,75.8182156 1.26415528,75.8182156 C1.44119232,75.8182156 1.61941454,75.7802896 1.78756269,75.7044378 L18.2299331,68.2297711 C20.5988219,67.1540674 22.3256368,65.0834008 22.9690442,62.5514008 C23.5745257,60.1685859 23.0954145,57.7074008 21.6542294,55.7998452 Z M20.5191182,61.9294748 C20.0665257,63.7131785 18.8505257,65.17066 17.1844516,65.9291785 L3.81008121,72.0082896 L9.88919232,58.6327341 C10.6463775,56.96666 12.1051923,55.7505119 13.888896,55.2980674 C14.3579331,55.1792526 14.8293405,55.1210304 15.2945257,55.1210304 C16.0820812,55.1210304 16.851859,55.2891785 17.5534886,55.6165859 L16.3500812,57.74666 C16.0706738,58.2408822 16.1554145,58.861623 16.5573405,59.2623637 C16.9592664,59.665623 17.5800071,59.7490304 18.0730442,59.469623 L20.2031182,58.2648822 C20.7213405,59.3798452 20.8389701,60.6678452 20.5191182,61.9294748 Z" id="Shape"></path>
        <path d="M75.7355035,1.21874168 C75.6836516,0.603186126 75.1956516,0.115186126 74.5800961,0.0633342741 C74.087059,0.0240750149 62.3686887,-0.863332393 48.5873553,5.48511205 C48.2119479,5.6569639 47.9451331,6.00333427 47.8717998,6.41044539 C47.7984664,6.8175565 47.930022,7.23459353 48.222022,7.52659353 L68.2709109,27.5754824 C68.5098738,27.8144454 68.8322442,27.9458528 69.1646887,27.9458528 C69.2392072,27.9458528 69.3138738,27.9394824 69.3883924,27.9268898 C69.7955035,27.8535565 70.1405405,27.5868898 70.3137257,27.2113343 C76.6633553,13.4300009 75.7759479,1.71044539 75.7355035,1.21874168 Z M68.755059,24.4821491 L51.3153553,7.04244539 C61.4042442,2.78363057 70.239059,2.49029724 73.259059,2.5409639 C73.3095775,5.56348242 73.0251331,14.3705935 68.755059,24.4821491 Z" id="Shape"></path>
        <path d="M55.792,19.9291852 C51.5407407,15.6779259 44.6248889,15.6779259 40.3736296,19.9291852 C36.1223704,24.1804444 36.1223704,31.0962963 40.3736296,35.3475556 C42.4986667,37.4737778 45.2911111,38.5357037 48.0822222,38.5357037 C50.8746667,38.5357037 53.6657778,37.4725926 55.792,35.3475556 C60.0432593,31.0962963 60.0432593,24.1802963 55.792,19.9291852 Z M54.0045926,33.56 C50.7394074,36.8251852 45.4263704,36.8251852 42.1611852,33.56 C38.896,30.2948148 38.896,24.9817778 42.1611852,21.7165926 C43.7931852,20.0845926 45.9383704,19.268 48.0823704,19.268 C50.2263704,19.268 52.3715556,20.0845926 54.0047407,21.7165926 C57.2697778,24.9817778 57.2697778,30.2948148 54.0045926,33.56 Z" id="Shape"></path>
      </g>
    </g>
  </g>
</svg>
