<?xml version="1.0" encoding="UTF-8"?>
<svg xmlns="http://www.w3.org/2000/svg" xmlns:xlink="http://www.w3.org/1999/xlink" width="82px" height="75px" viewBox="0 0 82 75">
  <!-- Generator: Sketch 52.4 (67378) - http://www.bohemiancoding.com/sketch -->
  <title>support</title>
  <desc>Created with Sketch.</desc>
  <g id="V2019" stroke="none" stroke-width="1" fill="none" fill-rule="evenodd">
    <g id="Advisors" transform="translate(-777.000000, -2122.000000)" fill="#000000" stroke="#FFFFFF" stroke-width="1.4">
      <g id="support" transform="translate(778.000000, 2123.000000)">
        <path d="M79.4460878,51.8923378 L75.6321815,48.1095253 C75.0192128,47.5015565 74.0298378,47.5057753 73.4220253,48.1185878 C72.8140565,48.7314003 72.8182753,49.7209315 73.4310878,50.328744 L77.2448378,54.1115565 C77.5495253,54.4139003 77.947494,54.5648378 78.3453065,54.5648378 C78.7473378,54.5648378 79.149369,54.410619 79.4548378,54.102494 C80.0629628,53.4896815 80.0589003,52.5001503 79.4460878,51.8923378 Z" id="Path"></path>
        <path d="M71.7323444,44.2077344 C71.1220319,43.5974219 70.1328131,43.5974219 69.5221881,44.2077344 L69.5195319,44.2103906 C68.9092194,44.8207031 68.9106256,45.8089844 69.5209381,46.4192969 C69.8256256,46.7241406 70.2254694,46.8764844 70.6251569,46.8764844 C71.0257819,46.8764844 71.4267194,46.7235156 71.7321881,46.4180469 C72.3425006,45.8077344 72.3425006,44.8182031 71.7323444,44.2077344 Z" id="Path"></path>
        <path d="M58.5146094,51.4903125 L73.6752344,36.3298438 C75.9713281,34.0335938 75.9713281,30.2973438 73.6750781,28.0010938 C72.8653906,27.1914063 71.8764844,26.6685938 70.8349219,26.43 C71.1921094,25.6621875 71.3811719,24.8195313 71.3811719,23.9475 C71.3811719,22.374375 70.7685156,20.8954687 69.6563281,19.7832813 C68.7839844,18.9107813 67.6857031,18.3473438 66.4936719,18.144375 C67.1647656,16.0996875 66.6903906,13.7579687 65.0674219,12.1351562 C64.1750781,11.2429688 63.0652344,10.6992188 61.9069531,10.5004688 C62.1010156,9.9115625 62.2033594,9.2896875 62.2033594,8.6515625 C62.2033594,7.0784375 61.5907031,5.59953125 60.4785156,4.48734375 C59.3661719,3.37515625 57.8872656,2.7625 56.3142969,2.7625 C55.3153906,2.7625 54.3549219,3.0103125 53.5016406,3.475625 L53.3508594,3.31359375 C51.3911719,1.20765625 48.6172656,0 45.7408594,0 L33.4689844,0 C32.6060156,0 31.9061719,0.69984375 31.9061719,1.5628125 L31.9061719,3.6121875 C31.9061719,4.43234375 32.0449219,5.23078125 32.3102344,5.9815625 C31.6033594,5.68796875 30.8385156,5.53375 30.0500781,5.53375 C28.4769531,5.53375 26.9980469,6.14640625 25.8857031,7.25859375 C24.2619531,8.88234375 23.7880469,11.2257813 24.4607031,13.2710938 C23.3014844,13.469375 22.1900781,14.0134375 21.2969531,14.9064063 C20.1847656,16.01875 19.5721094,17.4976562 19.5721094,19.070625 C19.5721094,19.7075 19.6741406,20.3284375 19.8674219,20.9160938 C18.6767969,21.1196875 17.5796094,21.6828125 16.7080469,22.5545313 C14.9147656,24.3478125 14.5221094,27.0196875 15.5300781,29.1976563 C14.4627344,29.4415625 13.4824219,29.9790625 12.6889844,30.7723438 C10.3928906,33.0684375 10.3928906,36.8046875 12.6889844,39.1009375 L15.8067969,42.2185937 L0.457734375,57.5673438 C-0.152578125,58.1776562 -0.152578125,59.1671875 0.457734375,59.7776563 C0.762890625,60.0826563 1.16289062,60.2354688 1.56273438,60.2354688 C1.96257812,60.2354688 2.36257812,60.0828125 2.66773437,59.7776563 L18.1649219,44.2804688 C19.0422656,44.7810938 20.0378906,45.0489063 21.0755469,45.0489063 C22.6485156,45.0489063 24.1274219,44.43625 25.2397656,43.3239063 C26.4482031,42.115625 27.0197656,40.5082813 26.9561719,38.9220312 C27.0353906,38.9253125 27.1146094,38.9276562 27.1938281,38.9276562 C28.7016406,38.9275 30.2102344,38.3534375 31.3580469,37.205625 C32.4702344,36.0932812 33.0828906,34.614375 33.0828906,33.0414062 C33.0828906,32.961875 33.0802344,32.8828125 33.0771094,32.80375 C33.1553906,32.806875 33.2336719,32.809375 33.3121094,32.809375 C34.8200781,32.809375 36.3283594,32.2353125 37.4763281,31.0873437 C38.5885156,29.975 39.2011719,28.4960937 39.2011719,26.923125 C39.2011719,26.8435937 39.1985156,26.7645312 39.1953906,26.6854687 C39.2736719,26.6885937 39.3519531,26.6910937 39.4303906,26.6910937 C40.9385156,26.6910937 42.4466406,26.1170312 43.5946094,24.9690625 C45.7521094,22.8115625 45.8819531,19.3829687 43.9852344,17.071875 L54.3592969,6.6978125 C54.8813281,6.175625 55.5750781,5.88828125 56.3133594,5.88828125 C57.0516406,5.88828125 57.7455469,6.175625 58.2675781,6.6978125 C58.7896094,7.21984375 59.0769531,7.91359375 59.0769531,8.651875 C59.0769531,9.39 58.7896094,10.0840625 58.2674219,10.6059375 L56.7378906,12.1354687 L51.1882031,17.6851562 C50.5778906,18.2954687 50.5778906,19.285 51.1882031,19.8954687 C51.4933594,20.2004687 51.8933594,20.3532812 52.2932031,20.3532812 C52.6930469,20.3532812 53.0930469,20.200625 53.3982031,19.8954687 L58.9478906,14.3457812 C60.0252344,13.2682812 61.7785156,13.268125 62.8561719,14.345625 C63.9336719,15.4232812 63.9336719,17.1764062 62.8561719,18.2540625 L61.3264844,19.78375 L57.3064844,23.80375 C56.6961719,24.4140625 56.6961719,25.4035937 57.3064844,26.0140625 C57.6116406,26.3190625 58.0116406,26.471875 58.4114844,26.471875 C58.8113281,26.471875 59.2113281,26.3192187 59.5164844,26.0140625 L63.5364844,21.9940625 C64.0585156,21.471875 64.7524219,21.1845312 65.4905469,21.1845312 C66.2288281,21.1845312 66.9227344,21.471875 67.4447656,21.9940625 C67.9667969,22.5160937 68.2541406,23.2098437 68.2541406,23.948125 C68.2541406,24.68625 67.9667969,25.3803125 67.4446094,25.9021875 L65.3450781,28.0017187 L63.4246094,29.9221875 C62.8142969,30.5325 62.8142969,31.5220312 63.4246094,32.1325 C63.7297656,32.4375 64.1297656,32.5903125 64.5296094,32.5903125 C64.9294531,32.5903125 65.3294531,32.4376563 65.6346094,32.1325 L67.5564844,30.210625 C68.6341406,29.1348437 70.3863281,29.135 71.4633594,30.2120312 C72.5410156,31.2895312 72.5410156,33.0428125 71.4633594,34.1204687 L56.3027344,49.2809375 C52.4958594,53.0879688 47.4363281,55.291875 42.0561719,55.4871875 C41.6607031,55.5015625 41.2850781,55.6654688 41.0057031,55.9460937 L27.0007031,70.0029687 C26.3914844,70.614375 26.3932031,71.6039062 27.0047656,72.213125 C27.3096094,72.516875 27.7086719,72.6689062 28.1077344,72.6689062 C28.5085156,72.6689062 28.9096094,72.515625 29.2147656,72.2090625 L39.5158594,61.87 C42.1324219,63.5485937 45.2096094,64.3467187 48.3385156,64.1398437 L56.4007031,72.2021875 C56.7058594,72.5071875 57.1058594,72.66 57.5057031,72.66 C57.9057031,72.66 58.3055469,72.5073437 58.6107031,72.2021875 C59.2210156,71.591875 59.2210156,70.6023437 58.6107031,69.991875 L50.0388281,61.4190625 C49.7142969,61.0946875 49.2633594,60.9289062 48.8060156,60.9664062 L48.3105469,61.0070312 C46.0235156,61.1945312 43.7628906,60.6935937 41.7891406,59.5875 L42.7935156,58.5795312 C48.7335156,58.213125 54.2947656,55.7103125 58.5146094,51.4903125 Z M23.0297656,41.1139062 C22.5077344,41.6360938 21.8136719,41.9234375 21.0757031,41.9234375 C20.3374219,41.9234375 19.6435156,41.6360938 19.1216406,41.1139062 L14.8988281,36.89125 C13.8213281,35.81375 13.8213281,34.0604688 14.8988281,32.9828125 C15.4208594,32.460625 16.1149219,32.1732813 16.8530469,32.1732813 C17.5911719,32.1732813 18.2852344,32.460625 18.8071094,32.9828125 L23.0299219,37.2054688 C24.1072656,38.2829688 24.1072656,40.03625 23.0297656,41.1139062 Z M29.1483594,34.9953125 C28.0707031,36.0728125 26.3171094,36.0728125 25.2399219,34.9953125 L21.0171094,30.7725 L18.9174219,28.6728125 C17.8399219,27.5953125 17.8399219,25.8420313 18.9174219,24.7645313 C19.4394531,24.2423437 20.1335156,23.955 20.8714844,23.955 C21.6097656,23.955 22.3036719,24.2423437 22.8255469,24.7645313 L29.1478906,31.086875 C29.1478906,31.086875 29.1478906,31.086875 29.1480469,31.086875 C29.6702344,31.6090625 29.9575781,32.3029688 29.9575781,33.0410938 C29.9575781,33.7792188 29.6702344,34.4732813 29.1483594,34.9953125 Z M35.2666406,28.876875 C34.1889844,29.9542188 32.4355469,29.954375 31.3582031,28.876875 L23.5061719,21.0248438 C22.9841406,20.5028125 22.6967969,19.8090625 22.6967969,19.0707813 C22.6967969,18.3326563 22.9841406,17.6385938 23.5063281,17.1167188 C24.0450781,16.5779688 24.7528906,16.3085938 25.4603906,16.3085938 C26.1675781,16.3085938 26.8746094,16.5776563 27.4132031,17.1154688 L30.9919531,20.6942188 L35.2663281,24.9685938 L35.2664844,24.9685938 C35.7883594,25.490625 36.0757031,26.184375 36.0757031,26.9226563 C36.0760156,27.6609375 35.7886719,28.355 35.2666406,28.876875 Z M41.3850781,22.7584375 C40.3075781,23.8359375 38.5542969,23.8359375 37.4767969,22.7584375 L29.6247656,14.9064063 C29.6239844,14.905625 29.6230469,14.9048438 29.6221094,14.9039063 L28.0950781,13.376875 C27.0175781,12.2992188 27.0175781,10.5460938 28.0950781,9.4684375 C28.6338281,8.92953125 29.3416406,8.66015625 30.0492969,8.66015625 C30.7569531,8.66015625 31.4647656,8.92953125 32.0033594,9.4684375 L41.3847656,18.8498438 C41.9069531,19.371875 42.1942969,20.0657813 42.1942969,20.8039063 C42.1944531,21.5423438 41.9072656,22.2365625 41.3850781,22.7584375 Z M41.7960156,14.8409375 L37.5035156,10.5484375 C37.9902344,10.6523438 38.4907031,10.7075 39.0000781,10.7073438 C39.0114844,10.7073438 39.0230469,10.7073438 39.0346094,10.7073438 L43.3233594,10.6871875 C44.1863281,10.683125 44.8828906,9.98015625 44.8788281,9.11703125 C44.8747656,8.25640625 44.1758594,7.5615625 43.3161719,7.5615625 C43.3136719,7.5615625 43.3111719,7.5615625 43.3086719,7.5615625 L39.0199219,7.58171875 C39.0133594,7.58171875 39.0071094,7.58171875 39.0005469,7.58171875 C37.9438281,7.58171875 36.9499219,7.1715625 36.2005469,6.42578125 C35.4464844,5.67515625 35.0313281,4.67609375 35.0313281,3.61203125 L35.0313281,3.12546875 L45.7403906,3.12546875 C47.7521094,3.12546875 49.6919531,3.97 51.0625781,5.4428125 L51.1261719,5.51109375 L41.7960156,14.8409375 Z" id="Shape" fill-rule="nonzero"></path>
      </g>
    </g>
  </g>
</svg>
