<?xml version="1.0" encoding="UTF-8"?>
<svg xmlns="http://www.w3.org/2000/svg" xmlns:xlink="http://www.w3.org/1999/xlink" width="78px" height="78px" viewBox="0 0 78 78">
  <!-- Generator: Sketch 52.4 (67378) - http://www.bohemiancoding.com/sketch -->
  <title>together</title>
  <desc>Created with Sketch.</desc>
  <g id="V2019" stroke="none" stroke-width="1" fill="none" fill-rule="evenodd">
    <g id="Advisors" transform="translate(-1634.000000, -2121.000000)" fill="#000000" stroke="#FFFFFF" stroke-width="1.4">
      <g id="together" transform="translate(1635.000000, 2122.000000)">
        <path d="M75.9181498,56.8075001 L74.505767,49.6449455 C73.9382904,46.7667423 72.5401576,44.1502345 70.4627748,42.0784923 L67.982681,39.6055236 L67.982681,31.1769455 C69.5326654,30.5643439 70.6325873,29.0522111 70.6325873,27.2869923 C70.6325873,26.810508 70.551392,26.3527267 70.4038451,25.925672 C72.1600091,25.4298908 73.4511185,23.8141486 73.4511185,21.9015314 C73.4511185,21.3963986 73.361017,20.9118986 73.1961029,20.463172 C74.8260951,19.8918361 75.9986029,18.3387345 75.9986029,16.5162189 C75.9986029,14.6935548 74.8260951,13.1406017 73.1961029,12.5692658 C73.361017,12.1205392 73.4511185,11.6360392 73.4511185,11.1309064 C73.4511185,8.82492983 71.575017,6.94912514 69.2693373,6.94912514 L60.8884076,6.94912514 C61.6577591,6.01975795 62.0278138,4.77288295 61.8044154,3.50626577 C61.6049154,2.37457827 60.973017,1.39370327 60.0250951,0.744140765 C59.0773216,0.0945782652 57.9342045,-0.140695172 56.807267,0.0816642027 L49.6445638,1.49404702 C46.7662123,2.06167202 44.1498529,3.45980483 42.0782591,5.53718764 L39.6052904,8.01728139 L31.1767123,8.01728139 C30.5641107,6.46729702 29.0519779,5.36737514 27.2869076,5.36737514 C26.8104232,5.36737514 26.352642,5.44857045 25.9255873,5.59611733 C25.429806,3.83995327 23.8140638,2.54884389 21.9015951,2.54884389 C21.3964623,2.54884389 20.9119623,2.63894545 20.4632357,2.80385952 C19.8918998,1.17386733 18.3387982,0.00135951525 16.5162826,0.00135951525 C14.6936185,0.00135951525 13.1406654,1.17401577 12.5693295,2.80400795 C12.1206029,2.63909389 11.6361029,2.54899233 11.1309701,2.54899233 C8.82514196,2.54899233 6.94918883,4.42494545 6.94918883,6.73077358 L6.94918883,15.1117033 C6.01997008,14.3425001 4.77339196,13.9725939 3.50632946,14.1958439 C2.37464196,14.3953439 1.39376696,15.0272423 0.744204456,15.9751642 C0.0946419556,16.9229376 -0.140631482,18.0659064 0.0815794556,19.1931408 L1.49425914,26.3556955 C2.06188414,29.234047 3.46001696,31.8504064 5.53725133,33.9220001 L8.01719664,36.3949689 L8.01719664,44.8233986 C6.46706383,45.4360001 5.36699352,46.9482814 5.36699352,48.7133517 C5.36699352,49.1899845 5.44818883,49.6476173 5.59573571,50.0748205 C3.83957164,50.5706017 2.54846227,52.1861955 2.54846227,54.0988126 C2.54846227,54.6040939 2.63856383,55.0885939 2.80347789,55.5373205 C1.17333727,56.1086564 0.000977893087,57.661758 0.000977893087,59.4842736 C0.000977893087,61.3069376 1.17348571,62.8598908 2.80347789,63.4310783 C2.63856383,63.8798048 2.54846227,64.3644533 2.54846227,64.8695861 C2.54846227,67.1754142 4.42456383,69.0513673 6.73024352,69.0513673 L15.1111732,69.0513673 C14.3419701,69.9807345 13.9719154,71.2274611 14.1953138,72.4940783 C14.3948138,73.6257658 15.0267123,74.6066408 15.9744857,75.2560548 C16.6893607,75.746047 17.515267,76.0003205 18.361806,76.0003205 C18.6374545,76.0003205 18.9154779,75.9731564 19.1926107,75.9186798 L26.3553138,74.5061486 C29.2333685,73.938672 31.8498763,72.5405392 33.9216185,70.4631564 L36.3945873,67.9830626 L44.8231654,67.9830626 C45.435767,69.5331955 46.9478998,70.6332658 48.7131185,70.6332658 C49.1896029,70.6332658 49.6473841,70.5520705 50.0744388,70.4045236 C50.5703685,72.1606876 52.1861107,73.4516486 54.098431,73.4516486 C54.6035638,73.4516486 55.0882123,73.361547 55.5369388,73.196633 C56.1081263,74.8267736 57.6612279,75.999133 59.4837435,75.999133 C61.3064076,75.999133 62.8595091,74.8266251 63.4306966,73.196633 C63.8794232,73.361547 64.3640716,73.4516486 64.8692045,73.4516486 C67.1750326,73.4516486 69.0508373,71.575547 69.0508373,69.2698673 L69.0508373,60.8892345 C69.9802045,61.6582892 71.2264857,62.0284923 72.4936966,61.8049455 C73.6253841,61.6054455 74.6062591,60.973547 75.2556732,60.0257736 C75.9050873,59.0780001 76.1405091,57.934883 75.9181498,56.8075001 Z M31.4691341,19.567797 L31.4691341,15.5216876 L31.4691341,10.985883 L40.2216029,10.985883 C40.6160013,10.985883 40.9942201,10.8288361 41.2726888,10.5496251 L44.1805795,7.63357045 C45.8340248,5.97567202 47.9217982,4.85971889 50.219017,4.40683608 L57.3817201,2.99445327 C57.7201576,2.92795327 58.0628998,2.99831264 58.347306,3.19321108 C58.6317123,3.38810952 58.821267,3.68246108 58.8810873,4.02193764 C58.9971654,4.67996108 58.5797591,5.31987514 57.9310873,5.47900014 L54.9544701,6.20886733 C54.0156029,6.43894545 53.418142,7.30255483 53.5340716,8.26220327 C53.6500013,9.2218517 54.435681,9.91846889 55.4024545,9.91846889 L69.2697826,9.91846889 C69.9387904,9.91846889 70.4829623,10.4627892 70.4829623,11.1316486 C70.4829623,11.7515236 70.0155326,12.2633361 69.4146576,12.3351798 L61.1992357,12.3446798 C60.3795638,12.3446798 59.7148607,13.0092345 59.7148607,13.8290548 C59.7148607,14.6488751 60.3795638,15.3134298 61.1992357,15.3134298 L71.8174154,15.3039298 C72.4864232,15.3039298 73.0305951,15.8482501 73.0305951,16.5171095 C73.0305951,17.1859689 72.4864232,17.7302892 71.8174154,17.7302892 L61.1992357,17.7302892 C60.3795638,17.7302892 59.7148607,18.3948439 59.7148607,19.2146642 C59.7148607,20.0344845 60.3795638,20.6990392 61.1992357,20.6990392 L69.4152513,20.6990392 C70.0158295,20.7711798 70.4829623,21.2829923 70.4829623,21.9025705 C70.4829623,22.5714298 69.9387904,23.1157501 69.2697826,23.1157501 L61.1992357,23.1157501 C60.3795638,23.1157501 59.7148607,23.7803048 59.7148607,24.6001251 C59.7148607,25.4199455 60.3795638,26.0845001 61.1992357,26.0845001 L66.5962748,26.0845001 C67.1968529,26.1564923 67.664431,26.6683048 67.664431,27.2881798 C67.664431,27.9570392 67.1202591,28.5012111 66.4513998,28.5012111 L51.4609935,28.5012111 C48.3206498,28.5012111 45.3698607,27.2766017 43.1525013,25.0528595 L41.2729857,23.1680001 C40.994517,22.8887892 40.6162982,22.7317423 40.2218998,22.7317423 L31.4691341,22.7317423 L31.4691341,19.567797 Z M7.63333727,31.819383 C5.97529039,30.1660861 4.85948571,28.0781642 4.40675133,25.7809455 L2.99422008,18.6183908 C2.92742321,18.2801017 2.99807946,17.9372111 3.19297789,17.6528048 C3.38787633,17.3683986 3.68222789,17.1788439 4.02170446,17.1190236 C4.68047008,17.0032423 5.31949352,17.4203517 5.47861852,18.069172 L6.20833727,21.0454923 C6.43826696,21.984508 7.30247008,22.5809298 8.26152477,22.4660392 C9.22132164,22.350258 9.91793883,21.5644298 9.91793883,20.5978048 L9.91793883,6.7304767 C9.91793883,6.06161733 10.4621107,5.51729702 11.1311185,5.51729702 C11.7508451,5.51729702 12.2625091,5.98457827 12.3346498,6.58515639 L12.3441498,14.8010236 C12.3441498,15.6208439 13.0088529,16.2853986 13.8285248,16.2853986 C14.6481966,16.2853986 15.3128998,15.6208439 15.3128998,14.8010236 L15.3128998,6.7304767 C15.3128998,6.64007827 15.3090404,6.55071889 15.3033998,6.46165639 L15.3033998,4.18284389 C15.3033998,3.51398452 15.8475716,2.96981264 16.5165795,2.96981264 C17.1855873,2.96981264 17.7297591,3.51398452 17.7297591,4.18284389 L17.7297591,6.46180483 C17.7241185,6.55071889 17.7202591,6.6402267 17.7202591,6.73062514 L17.7297591,14.801172 C17.7297591,15.6209923 18.3944623,16.285547 19.2141341,16.285547 C20.033806,16.285547 20.6985091,15.6209923 20.6985091,14.801172 L20.6985091,6.58515639 C20.7706498,5.98457827 21.2824623,5.51729702 21.9020404,5.51729702 C22.5710482,5.51729702 23.1152201,6.06161733 23.1152201,6.7304767 C23.1152201,6.7304767 23.1092826,13.9516642 23.1152201,14.0056955 L23.1152201,14.801172 C23.1152201,15.6209923 23.7799232,16.285547 24.5995951,16.285547 C25.419267,16.285547 26.0839701,15.6209923 26.0839701,14.801172 L26.0839701,9.40368764 C26.1561107,8.80310952 26.6679232,8.33582827 27.2875013,8.33582827 C27.9565091,8.33582827 28.500681,8.88014858 28.500681,9.54900795 L28.500681,24.5392658 C28.500681,27.6340392 27.2437123,30.6624611 25.0524779,32.847758 L23.1676185,34.7272736 C22.8882591,35.0057423 22.7313607,35.3839611 22.7313607,35.7783595 L22.7313607,44.5309767 L19.7627591,44.5309767 L19.7627591,40.5898126 C19.7627591,39.7701408 19.098056,39.1054376 18.2783841,39.1054376 C17.4587123,39.1054376 16.7940091,39.7701408 16.7940091,40.5898126 L16.7940091,44.5309767 L10.9857982,44.5309767 L10.9857982,35.7783595 C10.9857982,35.3839611 10.8287513,35.0057423 10.5495404,34.7272736 L7.63333727,31.819383 Z M44.5311888,65.0140158 L35.7782748,65.0140158 L35.7782748,65.0141642 C35.3838763,65.0141642 35.0056576,65.1712111 34.7271888,65.4502736 L31.8192982,68.3663283 C30.1658529,70.0245236 28.077931,71.1403283 25.7808607,71.5929142 L18.6181576,73.0054455 C18.2797201,73.0723908 17.9369779,73.0017345 17.6525716,72.8066876 C17.3681654,72.6116408 17.1786107,72.3174376 17.1187904,71.9779611 C17.0027123,71.3200861 17.4201185,70.680172 18.0687904,70.5211955 L21.0457045,69.7913283 C21.9844232,69.5611017 22.5817357,68.6976408 22.4656576,67.7379923 C22.3498763,66.7783439 21.5640482,66.0818751 20.5974232,66.0818751 L6.73039196,66.0818751 C6.06138414,66.0818751 5.51721227,65.5377033 5.51721227,64.8686955 C5.51721227,64.248672 5.98493883,63.7367111 6.58596227,63.6650158 L14.8010873,63.6556642 C15.6207591,63.6556642 16.2854623,62.9909611 16.2854623,62.1712892 C16.2854623,61.3516173 15.6207591,60.6869142 14.8010873,60.6869142 L4.18290758,60.6962658 C3.51389977,60.6962658 2.96972789,60.1520939 2.96972789,59.4830861 C2.96972789,58.8142267 3.51389977,58.2700548 4.18290758,58.2700548 L14.8010873,58.2700548 C15.6207591,58.2700548 16.2854623,57.6053517 16.2854623,56.7856798 C16.2854623,55.966008 15.6207591,55.3013048 14.8010873,55.3013048 L6.58596227,55.3013048 C5.98493883,55.2296095 5.51721227,54.7176486 5.51721227,54.0976251 C5.51721227,53.4287658 6.06138414,52.8845939 6.73039196,52.8845939 L14.8010873,52.8845939 C15.6207591,52.8845939 16.2854623,52.2198908 16.2854623,51.4002189 C16.2854623,50.580547 15.6207591,49.9158439 14.8010873,49.9158439 L9.40449352,49.9158439 C8.80361852,49.8441486 8.33589196,49.3321876 8.33589196,48.7121642 C8.33589196,48.0431564 8.88006383,47.4989845 9.54892321,47.4989845 L24.539181,47.4989845 C27.6793763,47.4989845 30.6301654,48.7237423 32.8476732,50.9473361 L34.7271888,52.8321955 C35.0056576,53.1115548 35.3838763,53.2684533 35.7782748,53.2684533 L44.5311888,53.2684533 L44.5311888,65.0140158 Z M44.5764623,50.3007423 L36.3942904,50.3007423 L34.9498451,48.8521408 C32.4461498,46.3413205 29.1967045,44.8475939 25.699517,44.576547 L25.699517,36.3943751 L27.1481185,34.9499298 C29.6194545,32.4855705 31.1415326,29.1656173 31.4214857,25.6994533 L39.6057357,25.6994533 L41.050181,27.1480548 C43.5538763,29.6588751 46.8034701,31.1524533 50.3006576,31.4236486 L50.3006576,39.6059689 L48.852056,41.0504142 C46.3412357,43.5538126 44.8475091,46.8035548 44.5764623,50.3007423 Z M72.8067513,58.3472423 C72.6118529,58.6316486 72.3175013,58.8212033 71.9778763,58.881172 C71.3192591,58.9978439 70.6800873,58.5798439 70.5212591,57.9310236 L69.791392,54.954258 C69.5611654,54.0152423 68.6960716,53.4189689 67.7379076,53.5341564 C66.7782591,53.6500861 66.0817904,54.4357658 66.0817904,55.4023908 L66.0817904,69.2697189 C66.0817904,69.9387267 65.5376185,70.4828986 64.8687591,70.4828986 C64.2487357,70.4828986 63.7367748,70.015172 63.6650795,69.4141486 L63.6557279,61.199172 C63.6557279,60.3795001 62.9910248,59.714797 62.1713529,59.714797 C61.351681,59.714797 60.6869779,60.3795001 60.6869779,61.199172 L60.6963295,71.8175001 C60.6963295,72.4863595 60.1521576,73.0305314 59.4831498,73.0305314 C58.8142904,73.0305314 58.2701185,72.4863595 58.2701185,71.8175001 L58.2701185,61.199172 C58.2701185,60.3795001 57.6054154,59.714797 56.7857435,59.714797 C55.9660716,59.714797 55.3013685,60.3795001 55.3013685,61.199172 L55.3013685,69.4141486 C55.2296732,70.015172 54.7177123,70.4828986 54.0976888,70.4828986 C53.428681,70.4828986 52.8845091,69.9387267 52.8845091,69.2697189 L52.8845091,61.199172 C52.8845091,60.3795001 52.219806,59.714797 51.4001341,59.714797 C50.5804623,59.714797 49.9157591,60.3795001 49.9157591,61.199172 L49.9157591,66.5966564 C49.8436185,67.1972345 49.331806,67.6645158 48.7122279,67.6645158 C48.0432201,67.6645158 47.4990482,67.1203439 47.4990482,66.4513361 L47.4990482,60.4791017 L47.4990482,56.4329923 L47.4990482,51.4610783 C47.4990482,48.320883 48.723806,45.3700939 50.9473998,43.1524376 L52.8322591,41.272922 C53.1116185,40.9944533 53.268517,40.6162345 53.268517,40.2218361 L53.268517,31.4690705 L56.4317201,31.4690705 L58.9937513,31.4690705 L58.9937513,35.9716251 C58.9937513,36.7914455 59.6584545,37.4560001 60.4781263,37.4560001 C61.2977982,37.4560001 61.9625013,36.7914455 61.9625013,35.9716251 L61.9625013,31.4690705 L65.0134857,31.4690705 L65.0134857,40.2218361 C65.0134857,40.6162345 65.1705326,40.9944533 65.4495951,41.272922 L68.3656498,44.1808126 C70.0238451,45.834258 71.1396498,47.9221798 71.5922357,50.2193986 L73.004767,57.3819533 C73.072306,57.7200939 73.0017982,58.0629845 72.8067513,58.3472423 Z" id="Shape" fill-rule="nonzero"></path>
        <path d="M61.4635156,40.3646094 C61.1874219,40.0883672 60.8043047,39.9296875 60.4140625,39.9296875 C60.0236719,39.9296875 59.6407031,40.0883672 59.3647578,40.3646094 C59.0886641,40.6407031 58.9296875,41.0235234 58.9296875,41.4155469 C58.9296875,41.8059375 59.0885156,42.1889062 59.3647578,42.465 C59.6407031,42.7409453 60.0236719,42.8984375 60.4140625,42.8984375 C60.8044531,42.8984375 61.1874219,42.7409453 61.4635156,42.465 C61.7396094,42.1874219 61.8984375,41.8059375 61.8984375,41.4155469 C61.8984375,41.0251563 61.7397578,40.6421875 61.4635156,40.3646094 Z" id="Path"></path>
        <path d="M19.3072656,33.8333594 C19.0311719,33.5557813 18.6482031,33.3984375 18.2578125,33.3984375 C17.8674219,33.3984375 17.4844531,33.5557813 17.2083594,33.8333594 C16.9324141,34.1094531 16.7734375,34.4909375 16.7734375,34.8828125 C16.7734375,35.2732031 16.9322656,35.6561719 17.2083594,35.9322656 C17.4844531,36.2083594 17.8674219,36.3671875 18.2578125,36.3671875 C18.6482031,36.3671875 19.0311719,36.2083594 19.3072656,35.9322656 C19.5832109,35.6561719 19.7421875,35.2732031 19.7421875,34.8828125 C19.7421875,34.4909375 19.5833594,34.1094531 19.3072656,33.8333594 Z" id="Path"></path>
      </g>
    </g>
  </g>
</svg>
